<svg height="511pt" viewBox="-6 1 511 511.99997" width="511pt" xmlns="http://www.w3.org/2000/svg"><path d="m54.875 163.398438c-2.703125 9.0625-3.3125 18.617187-1.785156 27.949218 1.824218 9.683594 2.867187 19.492188 3.109375 29.34375.164062 7.679688-1.621094 15.28125-5.183594 22.089844-2.253906 4.199219-5.328125 7.910156-9.035156 10.902344-.976563.773437-2.117188 1.308594-3.332031 1.570312-1.21875.265625-2.484376.273438-3.707032.027344l-13.644531-2.730469-13.640625-2.730469c-2.75-.546874-5.085938-2.363281-6.292969-4.898437-1.226562-2.507813-1.140625-5.460937.226563-7.894531 3.03125-5.4375 5.40625-11.21875 7.070312-17.21875 2.300782-8.339844 3.449219-16.953125 3.402344-25.601563-.0625-14.335937 4.589844-28.292969 13.242188-39.722656 3.703124-5.070313 8.171874-9.535156 13.238281-13.242187" fill="#955ba5"/><path d="m462.269531 141.242188c5.066407 3.707031 9.535157 8.171874 13.242188 13.242187 8.648437 11.429687 13.300781 25.386719 13.238281 39.722656-.042969 8.648438 1.101562 17.261719 3.40625 25.601563 1.664062 6 4.035156 11.78125 7.066406 17.222656 1.371094 2.433594 1.453125 5.382812.226563 7.894531-1.207031 2.53125-3.539063 4.347657-6.292969 4.898438l-13.644531 2.726562-13.644531 2.730469c-1.222657.246094-2.484376.238281-3.703126-.027344-1.214843-.261718-2.355468-.796875-3.328124-1.566406-3.710938-2.996094-6.785157-6.703125-9.035157-10.90625-3.566406-6.808594-5.351562-14.410156-5.1875-22.089844.246094-9.851562 1.285157-19.664062 3.113281-29.34375 1.523438-9.332031.914063-18.886718-1.789062-27.949218" fill="#955ba5"/><path d="m38.542969 370.757812c-5.050781 5.378907-9.492188 11.300782-13.238281 17.65625-8.304688 13.253907-12.878907 28.503907-13.242188 44.136719-.207031 7.226563.832031 14.433594 3.066406 21.308594 1.28125 3.949219 3.539063 7.511719 6.570313 10.351563 1.679687 1.488281 3.871093 2.273437 6.117187 2.1875 2.246094-.082032 4.382813-1.011719 5.96875-2.605469l17.734375-17.734375c1.308594-1.304688 2.167969-2.988282 2.460938-4.808594.292969-1.824219.015625-3.695312-.792969-5.355469-3.355469-6.996093-5.730469-14.421875-7.050781-22.070312-1.996094-11.371094-1.574219-23.039063 1.234375-34.238281" fill="#955ba5"/><path d="m462.269531 370.757812c5.050781 5.378907 9.492188 11.300782 13.242188 17.65625 8.300781 13.253907 12.875 28.503907 13.238281 44.136719.207031 7.226563-.828125 14.433594-3.066406 21.308594-1.28125 3.949219-3.539063 7.511719-6.566406 10.351563-1.683594 1.488281-3.875 2.273437-6.121094 2.1875-2.246094-.082032-4.378906-1.011719-5.96875-2.605469l-17.734375-17.734375c-1.308594-1.304688-2.167969-2.988282-2.460938-4.808594-.292969-1.824219-.011719-3.695312.796875-5.355469 3.351563-6.996093 5.726563-14.421875 7.046875-22.070312 1.996094-11.371094 1.574219-23.039063-1.234375-34.238281" fill="#955ba5"/><path d="m361.136719 256 49.296875-53.816406 49.296875-53.820313c2.796875-3.003906 3.34375-7.46875 1.355469-11.0625-1.828126-3.609375-5.859376-5.535156-9.8125-4.6875l-71.972657 14.839844-71.972656 14.84375-24.113281-77.917969-24.117188-77.917968c-1.152344-3.835938-4.6875-6.460938-8.691406-6.460938s-7.535156 2.625-8.691406 6.460938l-24.117188 77.917968-24.113281 77.917969-71.972656-14.84375-71.96875-14.839844c-3.957031-.847656-7.988281 1.078125-9.816407 4.6875-1.988281 3.59375-1.441406 8.058594 1.355469 11.0625l49.296875 53.820313 49.296875 53.816406-49.296875 53.816406-49.296875 53.820313c-2.796875 3.003906-3.34375 7.46875-1.355469 11.0625 1.828126 3.609375 5.859376 5.535156 9.816407 4.6875l71.96875-14.84375 71.972656-14.839844 24.113281 77.917969 24.117188 77.917968c1.15625 3.835938 4.6875 6.460938 8.691406 6.460938s7.539062-2.625 8.691406-6.460938l24.117188-77.917968 24.113281-77.917969 71.972656 14.839844 71.972657 14.84375c3.957031.847656 7.984374-1.078125 9.8125-4.6875 1.988281-3.59375 1.441406-8.058594-1.355469-11.0625l-49.296875-53.820313zm0 0" fill="#f0c419"/><g fill="#f3d55b"><path d="m250.40625 194.207031c-7.398438 0-14.78125-.644531-22.070312-1.921875-5.398438-.941406-10.726563-2.253906-15.949219-3.921875-3.054688-.921875-5.378907-3.425781-6.070313-6.542969-.691406-3.117187.355469-6.363281 2.738282-8.492187 2.378906-2.128906 5.726562-2.804687 8.746093-1.765625 4.46875 1.425781 9.03125 2.542969 13.652344 3.347656 12.539063 2.1875 25.363281 2.1875 37.90625 0 4.621094-.804687 9.179687-1.921875 13.648437-3.347656 3.023438-1.039062 6.367188-.363281 8.75 1.765625 2.378907 2.128906 3.425782 5.375 2.734376 8.492187-.691407 3.117188-3.011719 5.621094-6.070313 6.542969-5.21875 1.667969-10.550781 2.980469-15.949219 3.921875-7.285156 1.277344-14.667968 1.921875-22.066406 1.921875zm0 0"/><path d="m170.949219 238.347656c-3.367188 0-6.441407-1.921875-7.921875-4.949218-1.480469-3.023438-1.109375-6.628907.957031-9.289063 1.558594-2.011719 3.050781-4.074219 4.46875-6.179687 1.421875-2.109376 2.753906-4.246094 4.003906-6.414063 1.851563-3.203125 3.539063-6.496094 5.058594-9.867187 1.503906-3.335938 2.839844-6.75 3.996094-10.226563 1.535156-4.628906 6.535156-7.132813 11.164062-5.597656 4.625 1.539062 7.132813 6.539062 5.59375 11.164062-1.347656 4.042969-2.902343 8.015625-4.652343 11.898438-1.761719 3.914062-3.71875 7.734375-5.867188 11.453125-1.445312 2.511718-2.992188 4.992187-4.640625 7.4375-1.644531 2.441406-3.371094 4.828125-5.175781 7.15625-1.675782 2.15625-4.253906 3.417968-6.984375 3.414062zm0 0"/><path d="m189.890625 317.796875c-3.804687-.003906-7.175781-2.4375-8.378906-6.042969-1.160157-3.480468-2.492188-6.898437-4-10.238281-1.515625-3.367187-3.203125-6.65625-5.054688-9.851563-1.25-2.171874-2.582031-4.3125-4.003906-6.421874-1.417969-2.105469-2.90625-4.164063-4.460937-6.171876-2.851563-3.851562-2.109376-9.277343 1.675781-12.21875 3.785156-2.941406 9.222656-2.328124 12.257812 1.382813 1.808594 2.324219 3.535157 4.710937 5.179688 7.15625s3.195312 4.929687 4.644531 7.453125c2.144531 3.707031 4.101562 7.523438 5.863281 11.429688 1.753907 3.886718 3.308594 7.855468 4.65625 11.902343.890625 2.691407.4375 5.648438-1.222656 7.949219-1.65625 2.300781-4.320313 3.667969-7.15625 3.667969zm0 0"/><path d="m331.140625 238.347656c-2.730469.007813-5.308594-1.253906-6.984375-3.410156-1.804688-2.328125-3.53125-4.714844-5.175781-7.160156-1.648438-2.445313-3.195313-4.925782-4.644531-7.441406-4.273438-7.40625-7.792969-15.222657-10.503907-23.332032-1.417969-4.582031 1.082031-9.460937 5.636719-10.984375 4.550781-1.519531 9.484375.875 11.105469 5.390625 2.335937 6.984375 5.371093 13.71875 9.054687 20.097656 1.25 2.171876 2.585938 4.3125 4.007813 6.417969 1.417969 2.109375 2.90625 4.167969 4.46875 6.179688 2.066406 2.660156 2.4375 6.265625.957031 9.292969-1.480469 3.027343-4.554688 4.945312-7.921875 4.949218zm0 0"/><path d="m312.199219 317.796875c-.46875 0-.9375-.039063-1.398438-.113281-.476562-.078125-.945312-.195313-1.402343-.347656-4.621094-1.546876-7.113282-6.546876-5.570313-11.167969 1.355469-4.050781 2.910156-8.035157 4.667969-11.929688 1.753906-3.898437 3.703125-7.699219 5.839844-11.40625 1.453124-2.515625 3.003906-4.996093 4.648437-7.441406 1.644531-2.441406 3.371094-4.828125 5.179687-7.152344 1.90625-2.582031 5.058594-3.925781 8.242188-3.515625 3.179688.414063 5.886719 2.519532 7.070312 5.5 1.179688 2.980469.652344 6.371094-1.378906 8.851563-1.558594 2.003906-3.042968 4.0625-4.464844 6.167969-1.417968 2.109374-2.753906 4.246093-4.003906 6.414062-1.839844 3.1875-3.519531 6.464844-5.035156 9.832031-1.511719 3.355469-2.855469 6.785157-4.023438 10.273438-1.199218 3.605469-4.570312 6.035156-8.371093 6.035156zm0 0"/><path d="m285.71875 340.871094c-.921875 0-1.835938-.144532-2.707031-.433594-4.46875-1.425781-9.03125-2.542969-13.652344-3.347656-12.539063-2.1875-25.363281-2.1875-37.90625 0-4.621094.804687-9.183594 1.921875-13.648437 3.347656-2.226563.734375-4.652344.539062-6.730469-.535156-3.183594-1.625-5.070313-5.011719-4.78125-8.574219.289062-3.558594 2.695312-6.597656 6.097656-7.691406 5.21875-1.667969 10.546875-2.980469 15.945313-3.921875 14.601562-2.5625 29.539062-2.5625 44.140624 0 5.398438.941406 10.726563 2.253906 15.949219 3.921875 4.140625 1.332031 6.699219 5.480469 6.023438 9.777343-.675781 4.296876-4.382813 7.460938-8.730469 7.457032zm0 0"/></g><path d="m166.632812 156.777344c-1.210937 7.035156-3.082031 13.941406-5.59375 20.625-2.742187 7.339844-6.097656 14.441406-10.03125 21.21875-4.183593 7.257812-9.011718 14.125-14.421874 20.523437-4.863282 5.777344-10.296876 11.058594-16.210938 15.757813l-19.992188-21.804688-19.996093-21.804687c3.210937-3.496094 6.214843-7.175781 8.992187-11.023438 2.921875-4.039062 5.636719-8.226562 8.132813-12.546875 2.164062-3.792968 4.148437-7.632812 5.925781-11.484375 1.75-3.773437 3.304688-7.628906 4.667969-11.554687l29.265625 6.046875zm0 0" fill="#ff5364"/><path d="m166.632812 355.222656-29.261718 6.046875-29.265625 6.046875c-1.363281-3.925781-2.917969-7.78125-4.667969-11.554687-1.777344-3.851563-3.761719-7.691407-5.925781-11.484375-2.496094-4.320313-5.210938-8.507813-8.132813-12.546875-2.777344-3.847657-5.78125-7.527344-8.992187-11.023438l19.996093-21.804687 19.992188-21.804688c5.914062 4.699219 11.347656 9.980469 16.210938 15.757813 5.410156 6.398437 10.238281 13.265625 14.421874 20.523437 3.933594 6.777344 7.289063 13.875 10.03125 21.21875 2.511719 6.683594 4.382813 13.589844 5.59375 20.625zm0 0" fill="#ff5364"/><path d="m298.074219 379.585938-8.695313 28.117187-8.695312 28.113281c-4.828125-1.085937-9.71875-1.894531-14.640625-2.425781-10.394531-1.117187-20.878907-1.117187-31.273438 0-4.921875.53125-9.8125 1.339844-14.640625 2.425781l-8.695312-28.113281-8.695313-28.117187c7.121094-2.9375 14.535157-5.113282 22.113281-6.5 16.894532-3.101563 34.214844-3.101563 51.109376 0 7.582031 1.386718 14.992187 3.5625 22.113281 6.5zm0 0" fill="#ff5364"/><path d="m420.425781 320.707031c-3.210937 3.496094-6.210937 7.175781-8.992187 11.023438-2.921875 4.039062-5.636719 8.226562-8.132813 12.546875-2.164062 3.792968-4.148437 7.632812-5.925781 11.484375-1.746094 3.773437-3.304688 7.628906-4.667969 11.554687l-29.261719-6.046875-29.265624-6.046875c1.210937-7.035156 3.085937-13.941406 5.597656-20.625 5.703125-15.207031 13.976562-29.328125 24.449218-41.742187 4.867188-5.777344 10.296876-11.058594 16.210938-15.757813l19.992188 21.804688zm0 0" fill="#ff5364"/><path d="m420.425781 191.292969-19.996093 21.804687-19.992188 21.804688c-5.914062-4.699219-11.34375-9.980469-16.210938-15.757813-10.476562-12.414062-18.746093-26.535156-24.453124-41.742187-2.511719-6.683594-4.382813-13.589844-5.59375-20.625l29.265624-6.046875 29.261719-6.046875c1.363281 3.925781 2.921875 7.78125 4.667969 11.554687 1.777344 3.851563 3.761719 7.691407 5.925781 11.484375 2.496094 4.320313 5.210938 8.507813 8.132813 12.546875 2.777344 3.847657 5.78125 7.527344 8.992187 11.023438zm0 0" fill="#ff5364"/><path d="m298.074219 132.414062c-7.121094 2.9375-14.53125 5.113282-22.113281 6.5-16.894532 3.101563-34.214844 3.101563-51.109376 0-7.578124-1.386718-14.992187-3.5625-22.113281-6.5l8.695313-28.117187 8.695312-28.113281c4.828125 1.085937 9.71875 1.894531 14.640625 2.425781 5.195313.5625 10.414063.84375 15.636719.839844 5.222656.003906 10.445312-.277344 15.636719-.839844 4.921875-.53125 9.8125-1.339844 14.640625-2.425781l8.695312 28.113281zm0 0" fill="#ff5364"/></svg>